Coordinates
version=1
nRows=17
nColumns=36
inDegrees=yes

Units are S.I. units (second, meters, Newtons, ...)
If the header above contains a line with 'inDegrees', this indicates whether rotational values are in degrees (yes) or radians (no).

endheader
time	pelvis_tilt	pelvis_list	pelvis_rotation	pelvis_tx	pelvis_ty	pelvis_tz	hip_flexion_r	hip_adduction_r	hip_rotation_r	knee_angle_r	knee_angle_r_beta	ankle_angle_r	subtalar_angle_r	mtp_angle_r	hip_flexion_l	hip_adduction_l	hip_rotation_l	knee_angle_l	knee_angle_l_beta	ankle_angle_l	subtalar_angle_l	mtp_angle_l	lumbar_extension	lumbar_bending	lumbar_rotation	arm_flex_r	arm_add_r	arm_rot_r	elbow_flex_r	pro_sup_r	arm_flex_l	arm_add_l	arm_rot_l	elbow_flex_l	pro_sup_l
      6.68333330	    -13.86856467	     -0.42634821	    -11.02224522	      0.54276267	      0.81436382	      0.03039273	     42.92271677	     -6.96865570	    -10.59111638	     58.90906664	      1.02815717	     29.99386454	     -2.27858974	     -7.49999987	     46.00294828	     -8.02922986	     -1.53744606	     63.02499565	      1.09999369	     21.40884576	    -16.16853551	     -7.49999987	     -9.16102479	      2.23931221	      2.53777569	     54.15720606	     -5.17613955	     62.13112257	    126.22329540	     79.88857758	     52.06232668	     -0.50682958	     61.44067286	    127.01454654	     89.47475722
      6.70000000	    -13.07075233	     -0.62220495	    -10.70300788	      0.54312110	      0.83001543	      0.03051585	     40.42113625	     -6.75065833	    -11.29952726	     55.69782363	      0.97211041	     28.27543135	     -2.31089338	     -7.49999987	     43.57883520	     -7.94097975	     -2.04155747	     59.91733805	      1.04575483	     19.36100295	    -17.23264884	     -7.49999987	     -8.97612803	      2.21065327	      2.29602003	     54.37325068	     -5.40851194	     61.98869696	    126.11809332	     79.38912417	     52.73481176	     -0.51287967	     61.44262291	    126.60198901	     88.06603818
      6.71666670	    -12.29562348	     -0.68392757	    -10.45378691	      0.55104964	      0.84067697	      0.02922208	     37.67579902	     -6.60344530	    -11.88436019	     52.19251179	      0.91093118	     26.34393923	     -2.31188978	     -7.49999987	     40.96919860	     -7.63735096	     -2.50649252	     56.64070941	      0.98856687	     17.40984706	    -18.20490271	     -7.49999987	     -8.41623326	      2.16310382	      2.13487823	     54.43091222	     -5.48622875	     61.12804456	    126.59437456	     79.92271806	     52.17021784	     -0.03021295	     61.11657901	    126.76704907	     88.20801748
      6.73333330	    -11.82638265	     -0.64485026	    -10.08856114	      0.55185366	      0.85326273	      0.02927879	     35.13474662	     -6.48592443	    -12.51370221	     48.43852913	      0.84541182	     24.43879374	     -2.23520056	     -7.49999987	     38.86350599	     -7.22154825	     -2.82676745	     53.70651336	      0.93735549	     15.28936997	    -19.24917916	     -7.49999987	     -7.86043779	      2.12660674	      1.50555962	     54.05787779	     -5.70830790	     60.83331157	    126.56539170	     80.46230922	     51.95070855	      0.10517767	     60.69887269	    127.10031682	     88.29874634
      6.75000000	    -11.30467411	     -0.53515294	     -9.91879479	      0.56031989	      0.86392877	      0.03346249	     32.47233478	     -6.28821342	    -12.98597167	     44.67924227	      0.77979988	     22.59435551	     -2.03038712	     -7.49999987	     36.25920111	     -6.84652702	     -3.38577214	     50.15535328	      0.87537605	     14.02426505	    -19.48279192	     -7.49999987	     -7.16688898	      1.78577030	      0.87330776	     53.47962783	     -5.10276946	     60.10537517	    126.29580075	     80.96235953	     51.37720056	     -0.27312514	     60.34931145	    127.06960271	     88.35864195
      6.76666670	    -10.93485688	     -0.42710074	     -9.72767151	      0.56012271	      0.87381848	      0.03368063	     30.24758778	     -6.06016908	    -13.35493647	     41.21319980	      0.71930603	     20.75988475	     -2.06372286	     -7.49999987	     34.00539644	     -6.52263986	     -3.95090892	     46.71039268	      0.81525015	     12.83939326	    -19.48103944	     -7.49999987	     -6.50112005	      1.58842743	      0.53121392	     53.84152258	     -4.46736168	     60.32706496	    127.18523446	     81.46379516	     51.36832309	     -0.13859797	     60.41900169	    127.64606545	     88.35899456
      6.78333330	    -10.49310885	     -0.24768715	     -9.50669810	      0.56040540	      0.88878851	      0.03476961	     27.85081758	     -5.87133611	    -13.72940135	     37.41303203	      0.65298059	     18.56004519	     -2.05657555	     -7.49999987	     31.13542244	     -6.09395306	     -4.66369999	     42.14887878	      0.73563671	     11.28468826	    -19.13513000	     -7.49999987	     -6.17964320	      1.28479524	      0.55116035	     53.47754934	     -4.71502583	     60.05528866	    126.85177429	     82.06046940	     50.83396983	     -0.22190665	     60.04824473	    127.75043952	     88.07920205
      6.80000000	    -10.94031555	      0.07645079	     -9.42344125	      0.56139355	      0.89672112	      0.03479304	     26.62247705	     -5.73586220	    -14.10427625	     34.13981647	      0.59585220	     16.65246409	     -1.58224881	     -7.49999987	     29.21276411	     -5.73033455	     -5.54903405	     37.41854670	      0.65307684	      9.90696705	    -18.03339841	     -7.49999987	     -4.74653678	      0.90064070	      0.36741747	     53.44948088	     -4.74538425	     59.84857831	    126.82415936	     82.15048115	     50.46610773	     -0.36048386	     60.50579222	    128.29134437	     88.07292116
      6.81666670	    -10.13284711	      0.28379296	     -9.40712826	      0.56249392	      0.90973650	      0.03548867	     23.61400876	     -5.49289405	    -14.37015905	     29.97500843	      0.52316259	     14.45068967	     -1.65898780	     -7.49999987	     25.86601441	     -5.25083834	     -6.63956981	     32.45393225	      0.56642797	      8.09370035	    -17.12100903	     -7.49999987	     -5.26603517	      0.53645965	      0.25082279	     54.30638319	     -4.04953185	     59.61672250	    126.90154448	     82.39310734	     50.83254877	     -0.21416729	     60.84680542	    128.97337409	     87.91619976
      6.83333330	     -9.60089917	      0.49590010	     -9.50125202	      0.56291701	      0.92343451	      0.03652964	     20.71900067	     -5.02826400	    -14.24239910	     25.41016421	      0.44349103	     12.20488457	     -1.18879621	     -7.49999987	     22.66086800	     -4.83111813	     -7.99138284	     27.17857497	      0.47435562	      6.47437821	    -15.06642444	     -7.49999987	     -5.12513014	      0.08795566	      0.57376124	     53.94613671	     -4.03085419	     59.03349461	    125.82537690	     81.81314795	     50.01072525	      0.06718882	     60.36071399	    128.46617335	     86.24865129
      6.85000000	     -9.46500973	      0.65747555	     -9.45120650	      0.56396624	      0.93116601	      0.03696728	     18.58760085	     -4.58104578	    -14.00944277	     21.52652317	      0.37570871	     10.50574389	     -0.42338154	     -7.49999987	     20.46926854	     -4.41714552	     -8.56534087	     22.97096237	      0.40091893	      5.02643490	    -13.46835842	     -7.49999987	     -4.63074407	     -0.24503016	      0.23635227	     53.69365423	     -4.27632620	     58.71025014	    124.85406830	     81.98687072	     50.22335906	     -0.66381756	     59.95418903	    128.05139065	     86.02639000
      6.86666670	     -9.14607708	      0.69968136	     -9.47653671	      0.57012681	      0.93929424	      0.04136050	     16.36082632	     -4.01948138	    -13.59254871	     17.86774781	      0.31185103	      8.99351143	      0.13969852	     -7.49999987	     18.07834795	     -4.18592772	     -9.18417123	     19.07600799	      0.33293915	      3.83917415	    -11.67754728	     -7.49999987	     -4.03710808	     -0.51679959	      0.18397790	     52.73020531	     -4.09368746	     58.44930881	    124.64950980	     82.19420595	     48.82022442	     -1.48388192	     59.65908919	    127.84490129	     85.82181621
      6.88333330	     -8.59766419	      0.63321473	     -9.54233048	      0.57801114	      0.95003438	      0.03977493	     13.91059907	     -3.51355600	    -13.10218308	     14.47194684	      0.25258312	      7.34026349	      0.57592893	     -7.49999987	     15.41816762	     -3.99117778	    -10.01607794	     15.40817618	      0.26892341	      2.69829555	     -9.74146815	     -7.49999987	     -3.76316414	     -0.54319189	      0.05721401	     52.27926710	     -3.65977060	     58.84223922	    125.17467673	     82.79520590	     47.56579853	     -1.60733202	     60.28018014	    127.67871594	     85.45563798
      6.90000000	     -8.57037141	      0.62586494	     -9.47669314	      0.57753263	      0.94576656	      0.03960230	     12.54486386	     -3.15317139	    -12.79576719	     12.02666359	      0.20990488	      6.15449660	      1.01840853	     -7.49999987	     13.64489944	     -3.67290931	    -10.06517012	     12.16342962	      0.21229190	      1.72308891	     -8.67965247	     -7.49999987	     -2.96412910	     -0.46246685	      0.03500818	     52.57874256	     -3.26712549	     59.14662802	    126.38440015	     83.78629129	     47.45031678	     -0.82392375	     60.88614297	    128.83461036	     86.39235530
      6.91666670	     -8.22829802	      0.62208080	     -9.59199763	      0.57756461	      0.94776484	      0.04007293	     10.99472163	     -2.78650572	    -11.72047316	      9.76097041	      0.17036107	      5.05309636	      0.48278355	     -7.49999987	     11.78335926	     -3.42445985	    -10.39843188	      9.54962694	      0.16667243	      1.74122121	     -6.67713505	     -7.49999987	     -2.52066468	     -0.51050714	      0.87565112	     52.49557527	     -3.66661506	     58.54659073	    126.67845758	     83.93210612	     47.39548985	      0.43075224	     62.16767528	    129.35558770	     84.23784060
      6.93333330	     -8.39310183	      0.67891879	     -9.36609025	      0.57731670	      0.95415314	      0.04004174	      9.95549054	     -2.52648962	    -11.21843472	      7.58714281	      0.13242062	      4.34958344	      0.67217223	     -7.49999987	     10.82841813	     -3.13943130	    -10.14746468	      7.33344088	      0.12799269	      1.26582745	     -5.77311046	     -7.49999987	     -2.04077929	     -0.53915009	      0.97934969	     51.98298083	     -4.02615515	     59.04109370	    126.84550412	     83.97239361	     47.00042636	      0.68491511	     62.71386510	    129.45241443	     84.26919539
      6.95000000	     -8.07456186	      0.67739386	     -9.14372996	      0.57719770	      0.95340380	      0.03995162	      8.59282507	     -2.31358017	    -10.69268283	      5.78496441	      0.10096668	      3.58291546	      0.34656918	     -7.49999987	      9.69844773	     -2.88822386	     -9.97173062	      5.70300254	      0.09953617	      1.17794629	     -4.93737532	     -7.49999987	     -2.06224193	     -0.60143157	      1.32651053	     51.81417811	     -4.44868476	     58.80116856	    126.86298239	     83.12599888	     47.60403370	      1.15501648	     62.82030329	    129.23865472	     83.47784854
